<svg xmlns="http://www.w3.org/2000/svg" viewBox="0 0 512 512" role="img" aria-label="WE Bonus Tracker">
  <rect width="512" height="512" rx="96" fill="#26221d"/>
  <path d="M96 142h320v228H96z" fill="#f7f6f2"/>
  <path d="M126 181h260v28H126zm0 62h166v28H126zm0 62h216v28H126z" fill="#0f766e"/>
  <circle cx="374" cy="256" r="46" fill="#a85d14"/>
  <path d="M351 257l17 17 32-39" fill="none" stroke="#fff" stroke-width="16" stroke-linecap="round" stroke-linejoin="round"/>
  <path d="M120 410l44-210 42 145 36-104 38 104 42-145 70 210h-45l-24-75-35 75h-30l-16-49-17 49h-30l-36-75-15 75z" fill="#26221d"/>
</svg>
